Coordinates
version=1
nRows=38
nColumns=12
inDegrees=yes

Units are S.I. units (second, meters, Newtons, ...)
Angles are in degrees

endheader
time	SC_y	SC_z	SC_x	AC_y	AC_z	AC_x	GH_y	GH_z	GH_yy	EL_x	PS_y
       0.0              -44.09          1.835          11.56          32.65         -9.965          4.655          167.4          5.763         -97.57          44.48          103.1
   0.01272              -44.09           1.84          11.56          32.65         -9.966          4.654          167.4          5.772         -97.55          44.49          103.1
   0.02545              -44.09          1.845          11.56          32.65         -9.968          4.654          167.4          5.781         -97.52           44.5          103.1
   0.03817              -44.09          1.851          11.56          32.65         -9.969          4.653          167.3          5.791         -97.49          44.51          103.1
   0.05089              -44.09          1.857          11.56          32.65         -9.971          4.653          167.3          5.801         -97.46          44.52          103.1
   0.06362              -44.09          1.863          11.55          32.65         -9.972          4.652          167.3          5.812         -97.43          44.53          103.1
   0.07634               -44.1           1.87          11.55          32.64         -9.974          4.652          167.3          5.824         -97.39          44.54          103.1
   0.08907               -44.1          1.877          11.55          32.64         -9.976          4.651          167.2          5.837         -97.35          44.55          103.1
    0.1018               -44.1          1.885          11.55          32.64         -9.978          4.651          167.2          5.851         -97.31          44.56          103.1
    0.1145               -44.1          1.894          11.54          32.64         -9.981           4.65          167.2          5.865         -97.27          44.58          103.1
    0.1272               -44.1          1.903          11.54          32.64         -9.983          4.649          167.1          5.881         -97.22          44.59          103.1
      0.14              -44.11          1.912          11.54          32.64         -9.986          4.649          167.1          5.898         -97.17          44.61          103.1
    0.1527              -44.11          1.923          11.54          32.64         -9.989          4.648          167.1          5.916         -97.12          44.63          103.1
    0.1654              -44.11          1.934          11.53          32.64         -9.992          4.647          167.0          5.936         -97.06          44.64          103.1
    0.1781              -44.11          1.946          11.53          32.64         -9.995          4.646          167.0          5.957          -97.0          44.66          103.1
    0.1909              -44.12           1.96          11.52          32.64         -9.998          4.645          166.9           5.98         -96.93          44.69          103.1
    0.2036              -44.12          1.974          11.52          32.64          -10.0          4.644          166.9          6.005         -96.85          44.71          103.1
    0.2163              -44.13           1.99          11.51          32.64         -10.01          4.642          166.8          6.033         -96.77          44.74          103.1
     0.229              -44.13          2.007          11.51          32.63         -10.01          4.641          166.7          6.062         -96.68          44.76          103.0
    0.2418              -44.14          2.026           11.5          32.63         -10.02           4.64          166.7          6.095         -96.59           44.8          103.0
    0.2545              -44.14          2.047          11.49          32.63         -10.02          4.638          166.6          6.131         -96.48          44.83          103.0
    0.2672              -44.15          2.069          11.49          32.63         -10.03          4.636          166.5          6.171         -96.36          44.87          103.0
    0.2799              -44.15          2.095          11.48          32.63         -10.03          4.634          166.4          6.214         -96.23          44.91          103.0
    0.2926              -44.16          2.122          11.47          32.63         -10.04          4.632          166.3          6.263         -96.09          44.95          103.0
    0.3054              -44.17          2.153          11.46          32.62         -10.05           4.63          166.2          6.316         -95.93          45.01          103.0
    0.3181              -44.18          2.188          11.45          32.62         -10.06          4.627          166.1          6.376         -95.75          45.06          103.0
    0.3308              -44.19          2.227          11.43          32.62         -10.07          4.624          165.9          6.444         -95.55          45.13          103.0
    0.3435               -44.2           2.27          11.42          32.61         -10.08           4.62          165.7          6.519         -95.33           45.2          102.9
    0.3563              -44.21          2.319           11.4          32.61          -10.1          4.616          165.6          6.605         -95.07          45.28          102.9
     0.369              -44.22          2.375          11.39          32.61         -10.11          4.612          165.3          6.702         -94.78          45.37          102.9
    0.3817              -44.24          2.439          11.36           32.6         -10.13          4.607          165.1          6.812         -94.46          45.48          102.9
    0.3944              -44.26          2.512          11.34           32.6         -10.15          4.601          164.8          6.939         -94.08           45.6          102.8
    0.4072              -44.28          2.597          11.31          32.59         -10.17          4.595          164.5          7.086         -93.64          45.74          102.8
    0.4199              -44.31          2.695          11.28          32.58          -10.2          4.587          164.1          7.257         -93.14           45.9          102.8
    0.4326              -44.34           2.81          11.24          32.57         -10.23          4.578          163.7          7.456         -92.54          46.09          102.7
    0.4453              -44.37          2.945           11.2          32.56         -10.26          4.567          163.2          7.691         -91.84          46.31          102.7
    0.4581              -44.41          3.106          11.14          32.55         -10.31          4.554          162.6          7.971         -91.01          46.58          102.6
    0.4708              -44.46          3.299          11.08          32.54         -10.36          4.539          161.8          8.306         -90.02          46.89          102.5
